<?xml version="1.0" encoding="utf-8"?>
<!-- Generator: Adobe Illustrator 12.0.0, SVG Export Plug-In . SVG Version: 6.00 Build 51448)  -->
<!DOCTYPE svg PUBLIC "-//W3C//DTD SVG 1.1//EN" "http://www.w3.org/Graphics/SVG/1.1/DTD/svg11.dtd" [
	<!ENTITY ns_svg "http://www.w3.org/2000/svg">
	<!ENTITY ns_xlink "http://www.w3.org/1999/xlink">
]>
<svg  version="1.1" id="Layer_1" xmlns="&ns_svg;" xmlns:xlink="&ns_xlink;" width="162.933" height="42.87"
	 viewBox="0 0 162.933 42.87" overflow="visible" enable-background="new 0 0 162.933 42.87" xml:space="preserve">
<g>
	<g>
		<g id="XMLID_21_">
			<g>
				<path fill="#FFFFFF" d="M162.683,22.739V42.34h-22.651V22.739H162.683z M161.076,30.584v-1.949h-19.438v9.79h3.243v-7.841
					H161.076z"/>
				<polygon fill="#FFFFFF" points="137.075,28.935 137.075,38.725 117.641,38.725 117.641,28.935 120.885,28.935 120.885,36.76 
					133.832,36.76 133.832,28.935 				"/>
				<rect x="26.855" y="41.287" fill="#FFFFFF" width="110.122" height="1.333"/>
				<path fill="#FFFFFF" d="M114.804,29.061v9.79H95.368v-9.79H114.804z M111.56,36.886v-5.88H98.612v5.88H111.56z"/>
				<path fill="#2EA6DE" d="M93.313,3.837l0.083,0.024c-0.095,1.002-0.226,1.993-0.379,2.975c-0.036,0.249-0.075,0.494-0.118,0.738
					c-0.04,0.249-0.075,0.493-0.123,0.738c-0.047,0.245-0.103,0.485-0.165,0.726c-0.063,0.237-0.135,0.474-0.205,0.71
					c-0.143,0.478-0.284,0.951-0.363,1.44c-0.04,0.249-0.067,0.497-0.079,0.75c-0.008,0.126-0.008,0.252-0.012,0.383
					c0,0.063,0.055,0.142,0.153,0.233c0.099,0.095,0.245,0.197,0.367,0.296c0.135,0.103,0.241,0.197,0.288,0.272
					c0.052,0.079,0.04,0.138-0.008,0.189c-0.043,0.055-0.122,0.095-0.221,0.134c-0.106,0.032-0.229,0.063-0.379,0.087l-0.442,0.071
					c-0.066,0.012-0.138,0.023-0.197,0.04c-0.063,0.016-0.118,0.031-0.169,0.051c-0.206,0.071-0.249,0.185-0.34,0.288l-1.019,1.259
					c-1.341,1.681-2.628,3.378-3.851,5.094c-0.612,0.856-1.208,1.721-1.776,2.589c-0.572,0.868-1.125,1.74-1.622,2.632l-0.083-0.024
					c0.012-0.031,0.023-0.059,0.036-0.09h0.047c0.309-0.442,0.537-1.003,0.758-1.532c0.217-0.525,0.406-1.002,0.572-1.527
					c0.332-1.054,0.588-2.111,0.777-3.165c0.036-0.189,0.067-0.383,0.095-0.572c0.41-1.488,0.781-2.987,1.125-4.495l0.315-1.452
					c0.02-0.123,0.087-0.233-0.012-0.387c-0.02-0.04-0.048-0.079-0.083-0.123c-0.031-0.039-0.075-0.083-0.114-0.126l-0.272-0.269
					c-0.095-0.091-0.162-0.173-0.213-0.252c-0.048-0.079-0.067-0.146-0.056-0.209c0.008-0.063,0.052-0.115,0.158-0.15
					c0.103-0.036,0.265-0.051,0.454-0.063c0.182-0.016,0.383-0.023,0.532-0.047c0.158-0.02,0.265-0.055,0.324-0.103
					c0.106-0.099,0.217-0.197,0.319-0.296c0.209-0.197,0.406-0.398,0.588-0.608c0.363-0.41,0.667-0.84,0.967-1.271
					c0.154-0.213,0.304-0.43,0.462-0.643c0.161-0.213,0.327-0.422,0.505-0.631c0.174-0.209,0.359-0.415,0.541-0.62
					c0.181-0.205,0.362-0.415,0.548-0.62C91.762,5.463,92.52,4.646,93.313,3.837z"/>
				<polygon fill="#FFFFFF" points="92.212,29.053 92.212,38.843 88.964,38.843 88.964,31.002 84.114,31.002 84.114,38.843 
					80.87,38.843 80.87,31.002 76.016,31.002 76.016,38.843 72.772,38.843 72.772,29.053 				"/>
				<path fill="#2EA6DE" d="M85.271,14.476c0.012,0.264,0.016,0.529,0.012,0.793c-0.004,0.261-0.016,0.525-0.04,0.79
					c-0.063,0.864-0.161,1.724-0.304,2.588c-0.114,0.418-0.232,0.841-0.355,1.259c-0.275,0.951-0.571,1.895-0.888,2.833
					c-0.308,0.908-0.627,1.811-1.006,2.704h-0.04c-0.04-0.056-0.075-0.111-0.11-0.17c-0.004-0.004-0.004-0.004-0.004-0.004
					c-0.344-0.833-0.644-1.681-0.932-2.53c-0.315-0.939-0.611-1.882-0.888-2.833c-0.043-0.142-0.083-0.288-0.123-0.43
					c-0.02-0.09-0.035-0.177-0.051-0.268c-0.189-1.054-0.319-2.104-0.398-3.157c-0.02-0.26-0.036-0.521-0.04-0.785
					c-0.004-0.264,0-0.525,0.012-0.789c0.032-0.529,0.099-1.054,0.206-1.579c0.106-0.529,0.249-1.054,0.395-1.583
					c0.142-0.529,0.296-1.054,0.426-1.582c0.063-0.261,0.126-0.525,0.181-0.79c0.056-0.264,0.107-0.525,0.15-0.789l0.249-1.583
					l0.249-1.583c0.083-0.525,0.158-1.05,0.237-1.578c0.154-1.054,0.304-2.056,0.442-3.161h0.086
					c0.139,1.105,0.288,2.107,0.442,3.161c0.079,0.528,0.154,1.053,0.236,1.582l0.249,1.579l0.249,1.583
					c0.043,0.264,0.095,0.525,0.149,0.789c0.056,0.265,0.118,0.529,0.182,0.79c0.13,0.528,0.284,1.053,0.426,1.582
					c0.146,0.529,0.288,1.054,0.395,1.583C85.172,13.422,85.238,13.951,85.271,14.476z"/>
				<path fill="#FFFFFF" d="M84.938,18.647c-0.027,0.189-0.059,0.383-0.095,0.572c-0.189,1.054-0.445,2.111-0.777,3.165
					c-0.166,0.525-0.355,1.002-0.572,1.527c-0.221,0.529-0.449,1.089-0.758,1.532h-0.047c0.379-0.893,0.698-1.796,1.006-2.704
					c0.316-0.939,0.612-1.882,0.888-2.833C84.706,19.488,84.824,19.065,84.938,18.647z"/>
				<path fill="#2EA6DE" d="M82.646,25.533l-0.083,0.024c-0.497-0.893-1.054-1.764-1.622-2.632
					c-0.572-0.868-1.164-1.732-1.775-2.589c-1.224-1.716-2.51-3.409-3.852-5.094l-1.018-1.259c-0.091-0.103-0.134-0.217-0.343-0.288
					c-0.047-0.02-0.103-0.036-0.166-0.051c-0.059-0.016-0.13-0.028-0.201-0.04l-0.438-0.071c-0.15-0.023-0.272-0.051-0.379-0.087
					c-0.103-0.039-0.178-0.079-0.221-0.134c-0.047-0.051-0.063-0.111-0.008-0.189c0.047-0.075,0.154-0.17,0.288-0.272
					c0.123-0.099,0.269-0.201,0.367-0.292c0.099-0.095,0.15-0.174,0.154-0.237c-0.004-0.13-0.004-0.256-0.012-0.383
					c-0.012-0.252-0.04-0.501-0.079-0.75c-0.079-0.489-0.221-0.963-0.367-1.44c-0.067-0.237-0.142-0.474-0.201-0.71
					c-0.063-0.241-0.119-0.481-0.166-0.726s-0.083-0.489-0.126-0.738c-0.039-0.245-0.079-0.489-0.114-0.734
					c-0.154-0.987-0.284-1.977-0.379-2.979l0.083-0.024c0.793,0.809,1.547,1.626,2.285,2.447c0.186,0.205,0.367,0.415,0.549,0.62
					c0.181,0.205,0.367,0.41,0.541,0.62c0.178,0.209,0.343,0.418,0.501,0.631c0.162,0.213,0.312,0.43,0.466,0.643
					c0.3,0.43,0.6,0.86,0.967,1.271c0.182,0.206,0.379,0.411,0.584,0.608c0.106,0.099,0.217,0.197,0.324,0.296
					c0.059,0.047,0.166,0.083,0.323,0.103c0.15,0.024,0.352,0.032,0.533,0.047c0.189,0.012,0.352,0.028,0.454,0.063
					c0.106,0.035,0.15,0.086,0.158,0.15c0.012,0.063-0.008,0.13-0.055,0.209c-0.051,0.079-0.118,0.162-0.213,0.252l-0.272,0.269
					c-0.04,0.043-0.083,0.087-0.114,0.126c-0.04,0.043-0.063,0.083-0.087,0.119c-0.095,0.158-0.028,0.268-0.008,0.391l0.315,1.452
					c0.407,1.788,0.853,3.563,1.357,5.323c0.182,0.963,0.422,1.918,0.726,2.881c0.17,0.529,0.355,1.03,0.572,1.555
					c0.193,0.461,0.391,0.947,0.644,1.358c0,0,0,0,0.004,0.004C82.571,25.36,82.61,25.447,82.646,25.533z"/>
				<polygon fill="#FFFFFF" points="69.631,29.231 69.631,31.176 53.437,31.176 53.437,39.021 50.192,39.021 50.192,29.231 				"/>
				<path fill="#FFFFFF" d="M45.58,33.141v5.88H26.141v-5.88H45.58z M42.332,37.056v-1.949H29.384v1.949H42.332z"/>
				<rect x="26.141" y="29.231" fill="#FFFFFF" width="19.439" height="1.945"/>
				<path fill="#FFFFFF" d="M22.901,22.925v19.6H0.25v-19.6H22.901z M21.295,38.611v-5.88H1.856v5.88H21.295z M21.295,30.766v-1.945
					H1.856v1.945H21.295z"/>
				<rect x="5.1" y="34.696" fill="#FFFFFF" width="12.951" height="1.95"/>
			</g>
			<g>
			</g>
		</g>
	</g>
</g>
</svg>
