<?xml version="1.0" encoding="utf-8"?>
<!-- Generator: Adobe Illustrator 12.0.0, SVG Export Plug-In . SVG Version: 6.00 Build 51448)  -->
<!DOCTYPE svg PUBLIC "-//W3C//DTD SVG 1.1//EN" "http://www.w3.org/Graphics/SVG/1.1/DTD/svg11.dtd" [
	<!ENTITY ns_svg "http://www.w3.org/2000/svg">
	<!ENTITY ns_xlink "http://www.w3.org/1999/xlink">
]>
<svg  version="1.1" id="Layer_1" xmlns="&ns_svg;" xmlns:xlink="&ns_xlink;" width="348.935" height="91.388"
	 viewBox="0 0 348.935 91.388" overflow="visible" enable-background="new 0 0 348.935 91.388" xml:space="preserve">
<g>
	<g>
		<g id="XMLID_21_">
			<g>
				<path fill="#2EA6DE" d="M245.98,83.054h-41.69V62.053h41.69V83.054z M211.256,78.839h27.773V66.226h-27.773V78.839z"/>
				<path fill="#2EA6DE" d="M45.394,69.925H3.695v12.613h41.698V69.925z M3.695,65.709h41.698v-4.173H3.695V65.709z M0.25,48.89
					h48.589v42.045H0.25V48.89z"/>
				<path fill="#FFFFFF" d="M179.25,48.492c0.677-2.014,1.32-4.038,1.904-6.078c0.263-0.897,0.517-1.803,0.762-2.7
					c-0.059,0.406-0.127,0.821-0.203,1.228c-0.406,2.26-0.956,4.529-1.667,6.789c-0.355,1.126-0.762,2.15-1.228,3.276
					c-0.475,1.134-0.965,2.336-1.617,3.284H177.1C177.905,52.377,178.59,50.439,179.25,48.492z"/>
				<rect x="55.789" y="62.417" fill="#2EA6DE" width="41.699" height="4.174"/>
				<polygon fill="#2EA6DE" points="107.383,62.417 149.081,62.417 149.081,66.59 114.341,66.59 114.341,83.418 107.383,83.418
					"/>
				<path fill="#010101" d="M169.304,23.571c0.406,0.025,0.753,0.059,0.973,0.135c0.229,0.076,0.322,0.186,0.339,0.322
					c0.025,0.135-0.017,0.279-0.119,0.449c-0.11,0.169-0.254,0.347-0.457,0.542l-0.584,0.576c-0.085,0.093-0.178,0.186-0.246,0.271
					c-0.084,0.093-0.135,0.178-0.186,0.254c-0.203,0.338-0.06,0.576-0.017,0.838l0.677,3.115c0.872,3.834,1.829,7.644,2.912,11.419
					c0.389,2.065,0.906,4.114,1.557,6.179c0.364,1.135,0.762,2.21,1.228,3.336c0.414,0.99,0.838,2.031,1.388,2.912c0,0,0,0,0,0.008
					c0.076,0.187,0.152,0.373,0.229,0.559l-0.178,0.051c-1.066-1.913-2.26-3.783-3.479-5.646c-1.228-1.863-2.497-3.716-3.809-5.553
					c-2.624-3.682-5.384-7.314-8.262-10.928l-2.184-2.701c-0.195-0.22-0.288-0.465-0.736-0.618c-0.102-0.042-0.22-0.076-0.355-0.11
					c-0.127-0.034-0.28-0.06-0.432-0.085l-0.939-0.152c-0.322-0.051-0.584-0.11-0.813-0.186c-0.22-0.085-0.381-0.169-0.474-0.288
					c-0.102-0.11-0.135-0.237-0.017-0.406c0.102-0.161,0.33-0.364,0.618-0.584c0.262-0.211,0.576-0.432,0.787-0.626
					c0.211-0.203,0.322-0.373,0.33-0.508c-0.008-0.279-0.008-0.55-0.025-0.821c-0.025-0.542-0.084-1.075-0.169-1.608
					c-0.169-1.049-0.474-2.065-0.787-3.089c-0.144-0.508-0.305-1.016-0.432-1.524c-0.135-0.516-0.254-1.033-0.355-1.558
					s-0.178-1.049-0.271-1.583c-0.084-0.525-0.169-1.049-0.246-1.574c-0.33-2.116-0.609-4.241-0.813-6.391l0.178-0.051
					c1.702,1.735,3.318,3.487,4.901,5.248c0.398,0.44,0.787,0.889,1.177,1.329c0.389,0.44,0.787,0.88,1.16,1.329
					c0.381,0.449,0.736,0.897,1.075,1.354c0.347,0.457,0.669,0.922,0.999,1.38c0.644,0.922,1.287,1.845,2.074,2.726
					c0.39,0.44,0.813,0.88,1.253,1.304c0.229,0.211,0.466,0.423,0.694,0.635c0.127,0.102,0.355,0.178,0.694,0.22
					C168.483,23.521,168.915,23.537,169.304,23.571z"/>
				<path fill="#2EA6DE" d="M55.789,70.806h41.699v12.612H55.789V70.806z M90.521,75.021H62.747v4.182h27.773V75.021z"/>
				<polygon fill="#2EA6DE" points="252.066,61.782 259.024,61.782 259.024,78.568 286.798,78.568 286.798,61.782 293.756,61.782
					293.756,82.784 252.066,82.784 				"/>
				<path fill="#010101" d="M179.25,48.492c-0.66,1.947-1.346,3.886-2.15,5.799h-0.093c-0.085-0.118-0.161-0.237-0.237-0.364
					c0-0.008,0-0.008,0-0.008c-0.745-1.786-1.388-3.606-2.006-5.427c-0.677-2.014-1.312-4.038-1.905-6.078
					c-0.093-0.305-0.178-0.618-0.262-0.922c-0.042-0.195-0.076-0.381-0.11-0.576c-0.406-2.26-0.686-4.512-0.855-6.772
					c-0.042-0.559-0.076-1.118-0.084-1.685c-0.008-0.567,0-1.126,0.025-1.693c0.068-1.134,0.211-2.26,0.44-3.386
					c0.229-1.134,0.534-2.26,0.847-3.395c0.305-1.134,0.635-2.26,0.923-3.395c0.127-0.559,0.262-1.125,0.381-1.693
					c0.118-0.567,0.229-1.126,0.322-1.693l0.533-3.395l0.533-3.395c0.178-1.126,0.339-2.251,0.508-3.386
					c0.33-2.26,0.66-4.411,0.948-6.781h0.194c0.288,2.37,0.609,4.521,0.939,6.781c0.17,1.134,0.33,2.26,0.509,3.394l0.533,3.386
					l0.533,3.395c0.093,0.567,0.203,1.125,0.321,1.693c0.127,0.567,0.254,1.134,0.39,1.693c0.279,1.134,0.609,2.26,0.914,3.395
					c0.313,1.134,0.618,2.26,0.847,3.395c0.229,1.126,0.372,2.26,0.44,3.386c0.025,0.567,0.033,1.135,0.025,1.702
					c-0.009,0.559-0.034,1.126-0.085,1.693c-0.136,1.854-0.348,3.699-0.652,5.553c-0.245,0.897-0.499,1.803-0.762,2.7
					C180.571,44.454,179.927,46.478,179.25,48.492z"/>
				<rect x="57.321" y="88.278" fill="#2EA6DE" width="236.224" height="2.86"/>
				<path fill="#010101" d="M197.29,26.644c0.211,0.203,0.524,0.423,0.787,0.635c0.288,0.22,0.517,0.423,0.618,0.584
					c0.109,0.169,0.084,0.296-0.018,0.406c-0.093,0.119-0.262,0.203-0.474,0.288c-0.229,0.067-0.491,0.135-0.813,0.186l-0.948,0.152
					c-0.136,0.025-0.288,0.051-0.415,0.085c-0.144,0.034-0.254,0.067-0.372,0.11c-0.44,0.152-0.533,0.398-0.729,0.618l-2.184,2.701
					c-2.878,3.606-5.638,7.246-8.262,10.928c-1.313,1.837-2.591,3.69-3.81,5.553c-1.228,1.862-2.412,3.732-3.471,5.646l-0.178-0.051
					c0.025-0.067,0.051-0.127,0.076-0.194h0.102c0.652-0.948,1.143-2.15,1.617-3.284c0.466-1.126,0.872-2.15,1.228-3.276
					c0.711-2.26,1.261-4.529,1.667-6.789c0.076-0.406,0.145-0.821,0.203-1.228c0.881-3.191,1.677-6.408,2.413-9.642l0.677-3.115
					c0.051-0.262,0.187-0.5-0.025-0.83c-0.042-0.084-0.102-0.169-0.178-0.262c-0.067-0.085-0.152-0.178-0.245-0.271l-0.584-0.576
					c-0.203-0.195-0.348-0.373-0.457-0.542c-0.102-0.169-0.145-0.313-0.119-0.449c0.018-0.136,0.11-0.246,0.339-0.322
					s0.567-0.11,0.974-0.135c0.397-0.034,0.821-0.051,1.143-0.102c0.339-0.042,0.567-0.119,0.694-0.22
					c0.229-0.212,0.466-0.423,0.686-0.635c0.448-0.423,0.872-0.855,1.27-1.304c0.771-0.88,1.422-1.803,2.065-2.726
					c0.33-0.458,0.652-0.923,0.999-1.38c0.339-0.457,0.694-0.906,1.075-1.354c0.372-0.449,0.771-0.889,1.159-1.329
					c0.39-0.44,0.779-0.889,1.177-1.329c1.583-1.761,3.2-3.513,4.901-5.248l0.178,0.051c-0.203,2.15-0.482,4.275-0.813,6.382
					c-0.076,0.534-0.161,1.058-0.254,1.583c-0.085,0.534-0.161,1.058-0.263,1.583s-0.22,1.042-0.355,1.558
					c-0.135,0.508-0.287,1.016-0.439,1.524c-0.306,1.024-0.61,2.04-0.779,3.089c-0.085,0.534-0.144,1.067-0.169,1.608
					c-0.018,0.271-0.018,0.542-0.025,0.821C196.959,26.28,197.078,26.449,197.29,26.644z"/>
				<path fill="#2EA6DE" d="M348.685,90.538h-48.589V48.492h48.589V90.538z M345.24,61.138h-41.698V82.14h6.958V65.321h34.74V61.138
					z"/>
				<rect x="10.653" y="74.141" fill="#2EA6DE" width="27.782" height="4.182"/>
				<polygon fill="#010101" points="180.148,83.038 173.189,83.038 173.189,66.217 162.778,66.217 162.778,83.038 155.819,83.038
					155.819,62.036 197.518,62.036 197.518,83.038 190.551,83.038 190.551,66.217 180.148,66.217 				"/>
			</g>
			<g>
			</g>
		</g>
	</g>
</g>
</svg>
